# xmcd
#
# Track frame offsets:
#	150
#	18908
#	31644
#	50572
#	63127
#	77853
#	92271
#	105472
#	123278
#	138815
#	158589
#	170274
#
# Disc length: 2451 seconds
#
# Revision: 1
# Processed by: cddbd v1.5.1PL0 Copyright (c) Steve Scherf et al.
# Submitted via: audiograbber 1.82.02
#
DISCID=7c09910c
DTITLE=Peter Heger - Na Endlich!
DYEAR=1997
DGENRE=Boogie Woogie
TTITLE0=Boogie Meets Classic
TTITLE1=Für Elise
TTITLE2=Tanz Den Boogie Woogie
TTITLE3=Mofa-Boogie
TTITLE4=Schienboana-Blues
TTITLE5=Happy Fingers
TTITLE6=Koa Zeit
TTITLE7=Vor Oam Jahr
TTITLE8=Drive On
TTITLE9=Und I Hob Di So Gern
TTITLE10=Seufzer Blues (Live)
TTITLE11=Ragtime For Mam
EXTD=
EXTT0=
EXTT1=
EXTT2=
EXTT3=
EXTT4=
EXTT5=
EXTT6=
EXTT7=
EXTT8=
EXTT9=
EXTT10=
EXTT11=
PLAYORDER=
